<svg xmlns="http://www.w3.org/2000/svg" width="80" height="80" viewBox="0 0 80 80" fill="none">
  <rect width="80" height="80" rx="10" fill="#2E7D32"/>
  <path d="M60 25H50V20C50 17.2386 47.7614 15 45 15H35C32.2386 15 30 17.2386 30 20V25H20C17.2386 25 15 27.2386 15 30V60C15 62.7614 17.2386 65 20 65H60C62.7614 65 65 62.7614 65 60V30C65 27.2386 62.7614 25 60 25ZM35 20H45V25H35V20ZM60 60H20V30H60V60Z" fill="white"/>
  <circle cx="40" cy="45" r="10" fill="white"/>
  <path d="M40 35C34.4772 35 30 39.4772 30 45C30 50.5228 34.4772 55 40 55C45.5228 55 50 50.5228 50 45C50 39.4772 45.5228 35 40 35ZM40 50C37.2386 50 35 47.7614 35 45C35 42.2386 37.2386 40 40 40C42.7614 40 45 42.2386 45 45C45 47.7614 42.7614 50 40 50Z" fill="#2E7D32"/>
</svg> 